<svg width="17" height="21" viewBox="0 0 17 21" fill="none" xmlns="http://www.w3.org/2000/svg">
<path d="M8.31995 4.82172C9.42452 4.82172 10.3199 3.92629 10.3199 2.82172C10.3199 1.71715 9.42452 0.821716 8.31995 0.821716C7.21538 0.821716 6.31995 1.71715 6.31995 2.82172C6.31995 3.92629 7.21538 4.82172 8.31995 4.82172Z" fill="#E72D65"/>
<path d="M12.2099 6.93172C11.8199 6.54172 11.1499 5.82172 9.84995 5.82172C9.63995 5.82172 8.42995 5.82172 7.30995 5.82172C4.55995 5.81172 2.31995 3.57172 2.31995 0.821716H0.319946C0.319946 3.98172 2.42995 6.66172 5.31995 7.53172V20.8217H7.31995V14.8217H9.31995V20.8217H11.3199V8.87172L15.2699 12.8217L16.6799 11.4117L12.2099 6.93172Z" fill="#E72D65"/>
</svg>
