<svg width="21" height="20" viewBox="0 0 21 20" fill="none" xmlns="http://www.w3.org/2000/svg">
<path d="M10.6666 0C5.16663 0 0.666626 4.5 0.666626 10C0.666626 15.5 5.16663 20 10.6666 20C16.1666 20 20.6666 15.5 20.6666 10C20.6666 4.5 16.1666 0 10.6666 0ZM11.6666 2.07C15.2766 2.52 18.1466 5.4 18.5966 9H11.6666V2.07ZM2.66663 10C2.66663 5.94 5.73663 2.56 9.66663 2.07V17.94C5.73663 17.44 2.66663 14.06 2.66663 10ZM11.6666 17.93V11H18.5966C18.1466 14.61 15.2766 17.48 11.6666 17.93Z" fill="#613CED"/>
</svg>
