<svg width="16" height="12" viewBox="0 0 16 12" fill="none" xmlns="http://www.w3.org/2000/svg">
<path d="M8.19996 6.14665C8.55568 5.83874 8.84099 5.4579 9.03654 5.02999C9.23209 4.60209 9.3333 4.13712 9.33329 3.66665C9.33329 2.78259 8.9821 1.93475 8.35698 1.30962C7.73186 0.684503 6.88401 0.333313 5.99996 0.333313C5.1159 0.333313 4.26806 0.684503 3.64294 1.30962C3.01782 1.93475 2.66663 2.78259 2.66663 3.66665C2.66662 4.13712 2.76783 4.60209 2.96338 5.02999C3.15893 5.4579 3.44424 5.83874 3.79996 6.14665C2.86672 6.56924 2.07494 7.25167 1.51928 8.11234C0.963623 8.97302 0.667607 9.97552 0.666626 11C0.666626 11.1768 0.736864 11.3464 0.861888 11.4714C0.986912 11.5964 1.15648 11.6666 1.33329 11.6666C1.5101 11.6666 1.67967 11.5964 1.8047 11.4714C1.92972 11.3464 1.99996 11.1768 1.99996 11C1.99996 9.93911 2.42139 8.9217 3.17153 8.17155C3.92168 7.42141 4.93909 6.99998 5.99996 6.99998C7.06083 6.99998 8.07824 7.42141 8.82839 8.17155C9.57853 8.9217 9.99996 9.93911 9.99996 11C9.99996 11.1768 10.0702 11.3464 10.1952 11.4714C10.3202 11.5964 10.4898 11.6666 10.6666 11.6666C10.8434 11.6666 11.013 11.5964 11.138 11.4714C11.2631 11.3464 11.3333 11.1768 11.3333 11C11.3323 9.97552 11.0363 8.97302 10.4806 8.11234C9.92498 7.25167 9.1332 6.56924 8.19996 6.14665V6.14665ZM5.99996 5.66665C5.6044 5.66665 5.21772 5.54935 4.88882 5.32959C4.55992 5.10982 4.30358 4.79747 4.1522 4.43201C4.00083 4.06656 3.96122 3.66443 4.03839 3.27647C4.11556 2.8885 4.30604 2.53214 4.58575 2.25243C4.86545 1.97273 5.22182 1.78225 5.60978 1.70508C5.99774 1.62791 6.39987 1.66751 6.76533 1.81889C7.13078 1.97026 7.44314 2.22661 7.6629 2.55551C7.88266 2.8844 7.99996 3.27108 7.99996 3.66665C7.99996 4.19708 7.78925 4.70579 7.41417 5.08086C7.0391 5.45593 6.53039 5.66665 5.99996 5.66665ZM12.4933 5.87998C12.9199 5.39953 13.1986 4.80602 13.2958 4.17087C13.393 3.53573 13.3046 2.88603 13.0411 2.29998C12.7777 1.71393 12.3505 1.21651 11.8109 0.867595C11.2714 0.51868 10.6425 0.333141 9.99996 0.333313C9.82315 0.333313 9.65358 0.403551 9.52856 0.528575C9.40353 0.653599 9.33329 0.823169 9.33329 0.99998C9.33329 1.17679 9.40353 1.34636 9.52856 1.47138C9.65358 1.59641 9.82315 1.66665 9.99996 1.66665C10.5304 1.66665 11.0391 1.87736 11.4142 2.25243C11.7892 2.62751 12 3.13621 12 3.66665C11.999 4.01681 11.9062 4.36058 11.7307 4.66359C11.5552 4.96661 11.3032 5.21823 11 5.39331C10.9011 5.45033 10.8186 5.53176 10.7602 5.62981C10.7018 5.72786 10.6696 5.83925 10.6666 5.95331C10.6638 6.06649 10.6899 6.17851 10.7424 6.27882C10.7949 6.37913 10.8721 6.46441 10.9666 6.52665L11.2266 6.69998L11.3133 6.74665C12.1169 7.12779 12.7948 7.73064 13.2673 8.48419C13.7397 9.23774 13.987 10.1106 13.98 11C13.98 11.1768 14.0502 11.3464 14.1752 11.4714C14.3002 11.5964 14.4698 11.6666 14.6466 11.6666C14.8234 11.6666 14.993 11.5964 15.118 11.4714C15.2431 11.3464 15.3133 11.1768 15.3133 11C15.3187 9.97693 15.0625 8.96948 14.5689 8.07335C14.0754 7.17723 13.3609 6.42219 12.4933 5.87998V5.87998Z" fill="#2A5865"/>
</svg>
