<svg width="20" height="20" viewBox="0 0 20 20" fill="none" xmlns="http://www.w3.org/2000/svg">
<path d="M16.6 17.5H19V19.5H13V13.5H15V16.23C16.83 14.76 18 12.52 18 10C18 5.93 14.94 2.56 11 2.07V0.0499992C16.05 0.549999 20 4.81 20 10C20 12.99 18.68 15.67 16.6 17.5ZM2 10C2 7.48 3.17 5.23 5 3.77V6.5H7V0.499999H1V2.5H3.4C1.32 4.33 0 7.01 0 10C0 15.19 3.95 19.45 9 19.95V17.93C5.06 17.44 2 14.07 2 10ZM14.24 6.11L8.58 11.77L5.75 8.94L4.34 10.35L8.58 14.59L15.65 7.52L14.24 6.11Z" fill="#613CED"/>
</svg>
